<svg xmlns="http://www.w3.org/2000/svg" xmlns:xlink="http://www.w3.org/1999/xlink" width="500" zoomAndPan="magnify" viewBox="0 0 375 374.999991" height="500" preserveAspectRatio="xMidYMid meet" version="1.2"><defs><clipPath id="31c6fb69ba"><path d="M 10 10 L 365 10 L 365 365 L 10 365 Z M 10 10 "/></clipPath><clipPath id="a92af56211"><path d="M 75.351562 7.4375 L 367.5625 75.351562 L 299.648438 367.5625 L 7.4375 299.648438 Z M 75.351562 7.4375 "/></clipPath><clipPath id="e509896e0e"><path d="M 92.152344 11.34375 L 350.761719 71.445312 C 360.039062 73.601562 365.8125 82.871094 363.65625 92.152344 L 303.554688 350.761719 C 301.398438 360.039062 292.128906 365.8125 282.847656 363.65625 L 24.238281 303.554688 C 14.960938 301.398438 9.1875 292.128906 11.34375 282.847656 L 71.445312 24.238281 C 73.601562 14.960938 82.871094 9.1875 92.152344 11.34375 Z M 92.152344 11.34375 "/></clipPath><clipPath id="3901814571"><path d="M 76 125 L 260 125 L 260 260 L 76 260 Z M 76 125 "/></clipPath><clipPath id="dcb40d9d33"><path d="M 117.40625 74.960938 L 300.039062 117.40625 L 257.59375 300.039062 L 74.960938 257.59375 Z M 117.40625 74.960938 "/></clipPath><clipPath id="6814d838e2"><path d="M 117.40625 74.960938 L 300.039062 117.40625 L 257.59375 300.039062 L 74.960938 257.59375 Z M 117.40625 74.960938 "/></clipPath><clipPath id="58c57d70d7"><path d="M 235 108 L 292 108 L 292 176 L 235 176 Z M 235 108 "/></clipPath><clipPath id="01dc8e2adb"><path d="M 117.40625 74.960938 L 300.039062 117.40625 L 257.59375 300.039062 L 74.960938 257.59375 Z M 117.40625 74.960938 "/></clipPath><clipPath id="fcc3b9deab"><path d="M 117.40625 74.960938 L 300.039062 117.40625 L 257.59375 300.039062 L 74.960938 257.59375 Z M 117.40625 74.960938 "/></clipPath></defs><g id="def82522e0"><g clip-rule="nonzero" clip-path="url(#31c6fb69ba)"><g clip-rule="nonzero" clip-path="url(#a92af56211)"><g clip-rule="nonzero" clip-path="url(#e509896e0e)"><path style=" stroke:none;fill-rule:nonzero;fill:#40205f;fill-opacity:1;" d="M 75.351562 7.4375 L 367.5625 75.351562 L 299.648438 367.5625 L 7.4375 299.648438 Z M 75.351562 7.4375 "/></g></g></g><g clip-rule="nonzero" clip-path="url(#3901814571)"><g clip-rule="nonzero" clip-path="url(#dcb40d9d33)"><g clip-rule="nonzero" clip-path="url(#6814d838e2)"><path style=" stroke:none;fill-rule:nonzero;fill:#f9f1fd;fill-opacity:1;" d="M 223.910156 125.378906 L 102.871094 200.761719 C 101.828125 201.414062 100.980469 202.335938 100.429688 203.4375 L 77.324219 249.386719 C 76.277344 251.472656 76.382812 253.957031 77.621094 255.9375 C 78.570312 257.460938 80.082031 258.523438 81.789062 258.917969 C 82.300781 259.039062 82.828125 259.101562 83.367188 259.089844 L 134.796875 258.617188 C 136.027344 258.605469 137.230469 258.253906 138.277344 257.605469 L 259.308594 182.214844 Z M 223.910156 125.378906 "/></g></g></g><g clip-rule="nonzero" clip-path="url(#58c57d70d7)"><g clip-rule="nonzero" clip-path="url(#01dc8e2adb)"><g clip-rule="nonzero" clip-path="url(#fcc3b9deab)"><path style=" stroke:none;fill-rule:nonzero;fill:#f9f1fd;fill-opacity:1;" d="M 289.070312 146.519531 L 269.074219 114.414062 C 266.863281 110.863281 263.050781 108.574219 258.507812 108.164062 C 254.613281 107.796875 250.5 108.820312 246.917969 111.050781 L 235.277344 118.300781 L 270.675781 175.136719 L 282.320312 167.882812 C 285.898438 165.65625 288.632812 162.414062 290.019531 158.757812 C 291.625 154.523438 291.28125 150.066406 289.070312 146.519531 Z M 289.070312 146.519531 "/></g></g></g></g></svg>